<?xml version="1.0" encoding="utf-8"?>
<!-- Generator: Adobe Illustrator 22.1.0, SVG Export Plug-In . SVG Version: 6.00 Build 0)  -->
<svg version="1.1" id="图层_1" xmlns="http://www.w3.org/2000/svg" xmlns:xlink="http://www.w3.org/1999/xlink" x="0px" y="0px"
	 viewBox="0 0 340 80" style="enable-background:new 0 0 340 80;" xml:space="preserve">
<style type="text/css">
	.st0{fill:#FFFFFF;}
	.st1{fill:#F5C320;}
</style>
<path class="st0" d="M194.6,19.3v-3.4h-6.1l5-8.2l-2.9-1.8l-5.9,10h-11.1v-4.5h13.4V7.7h-13.4V3.6h-3.6v4.1h-11.1v3.6h11.1v4.5H155
	v3.4h6.3L155,29.7l2.9,1.8l1.8-3.2v15.2h29.2v-3.4h-25.8v-5h25.8v-2.9h-25.8V27h24.7v16.5h3.4V23.6h-28.5l2.7-4.3H194.6z M119,21.1
	l-4.1,1.1V15h4.8v-3.6h-4.8V3.6h-3.6v7.7h-5.2V15h5.2v8.4l-5.7,1.8l0.2,4.1l5.4-1.8v12.7h-5v3.4h8.4V26.3l5-1.8L119,21.1z"/>
<path class="st0" d="M127.1,40.1v-19l7-11.5H145V5.9h-24.2v3.6h9.3l-11.8,19.7L121,31l2.7-4.5v17h21.1V21.3h-20.4v3.4h17v15.4H127.1
	z M212.3,16.3h-7.7v3.6h4.3v23.5h5.4v-3.6h-2V16.3z M206.4,5.2c1.8,2.3,3.8,4.5,5.7,7l4.1-1.4l-6.1-7L206.4,5.2z M233.5,34.7
	l7.9-4.5v-10h-22.9v3.6h19.5v3.8l-8.6,5l-8.8-4.8l-1.8,2.9l7,3.8l-9.1,5.2l2,3.2l10.9-6.3l12.7,6.8l1.8-3.4L233.5,34.7z M223.6,7.7
	h12.9l0.9,8.6h4.1l-1.6-12.2h-19.5l-2.3,12.2h4.3L223.6,7.7z M263.9,10.4l-6.8-6.8l-3.6,1.8c2,2.3,4.3,4.5,6.3,7L263.9,10.4z
	 M259.8,16.8h-8.2v3.6h4.8v23.1h7.9v-3.6l-4.5,0.2L259.8,16.8z M291,16.8h-11.3V3.6h-3.6v39.8h3.6V20.4H291V16.8z"/>
<path class="st0" d="M264.3,16.8h12.9v3.6h-12.9V16.8z"/>
<path class="st0" d="M301,39.2h11.8V8.6H301V39.2z M304,12.2h5.7v23.5H304V12.2z M320.5,39.9V25.1H339V5h-19.7v3.6h7.2V22h-6.1V5.2
	h-3.4v38.5h22.4v-3.6L320.5,39.9L320.5,39.9z M330,8.6h5.7V22H330C330,22,330,8.6,330,8.6z"/>
<path class="st1" d="M112.6,75.2c-0.5,0.2-0.9,0.5-1.8,0.5c-1.1,0-1.6-0.5-1.6-1.6v-6.6h3.2v-1.6h-3.2V63h-1.4l-0.5,2.7l-1.8,0.2V67
	h1.8v6.6c0,2,1.1,3.2,3.2,3.2c1.1,0,2-0.2,2.7-0.5C113.3,76.3,112.6,75.2,112.6,75.2z M133.7,73.1c0,1.6-1.1,2.5-2.7,2.5
	s-2.5-0.9-2.5-2.5v-7.2h-1.8v7.5c0,2.5,1.4,3.8,3.8,3.8c2,0,2.9-0.9,3.4-1.4l0.2,1.1h1.6V65.9h-1.8v7.2
	C133.9,73.1,133.7,73.1,133.7,73.1z M154.5,65.7c-3.2,0-5,2-5,5.7c0,3.8,1.6,5.7,4.8,5.7s5-2,5-5.9
	C159.5,67.5,157.9,65.7,154.5,65.7z M154.5,67.3c2,0,2.9,1.4,2.9,4.1c0,2.9-0.9,4.1-2.9,4.1c-2,0-2.9-1.4-2.9-4.3
	C151.6,68.6,152.5,67.3,154.5,67.3z M180.1,67.7l-0.5-1.8h-7v1.6h5.2l-5.7,7.7v0.2l0.2,1.6h7.7v-1.6h-5.9L180.1,67.7z M199.3,65.7
	c-1.8,0-2.7,0.7-3.4,1.4v-5.4h-1.8V77h1.8v-7.9c0.5-0.9,1.4-1.8,2.9-1.8c1.4,0,2.3,0.9,2.3,2.3V77h1.8v-7.7
	C203,67.3,201.6,65.7,199.3,65.7z M222.2,65.7c-2.5,0-5,1.6-5,5.7c0,3.8,1.6,5.7,5.2,5.7c1.6,0,2.7-0.5,3.6-0.9l-0.9-1.4
	c-0.5,0.5-1.6,0.7-2.5,0.7c-2.3,0-3.4-1.1-3.6-3.4h7.2c0-0.7,0.2-1.4,0.2-1.8C226.5,67.5,224.7,65.7,222.2,65.7z M219,70.7
	c0.2-2,1.1-3.2,2.9-3.2s2.5,0.9,2.5,2.7v0.5H219z M247.1,70.2c0.9-0.2,1.8-1.1,1.8-2.9c0-2.3-1.6-3.4-4.1-3.4
	c-2.7,0-4.3,1.4-4.3,3.6c0,1.6,0.7,2.5,1.8,2.9c-0.9,0.2-2.3,1.1-2.3,3.2c0,2.5,1.6,3.8,4.5,3.8c2.9,0,4.8-1.4,4.8-3.8
	S247.8,70.4,247.1,70.2z M244.6,65.2c1.4,0,2.3,0.7,2.3,2c0,1.6-0.9,2.3-2.3,2.3c-1.6,0-2.3-0.9-2.3-2.3S243.3,65.2,244.6,65.2z
	 M244.6,75.6c-1.8,0-2.7-0.9-2.7-2.3c0-1.6,0.9-2.3,2.7-2.3c1.8,0,2.7,0.7,2.7,2.3S246.4,75.6,244.6,75.6z M264.1,74.3
	c-0.9,0-1.4,0.7-1.4,1.4c0,0.7,0.7,1.4,1.4,1.4c0.9,0,1.4-0.7,1.4-1.4C265.7,75,265,74.3,264.1,74.3z M283.8,67.5
	c1.1,0,1.8,0.5,2.3,0.9l1.4-1.4c-0.2-0.5-1.4-1.1-3.4-1.1c-3.2,0-5,2-5,5.9c0,3.6,1.6,5.7,4.8,5.7c2,0,2.9-0.7,3.6-1.1l-1.1-1.4
	c-0.5,0.5-1.1,0.9-2.3,0.9c-2,0-2.9-1.4-2.9-4.1C280.9,68.8,282,67.5,283.8,67.5z M305.3,65.7c-3.2,0-5,2-5,5.7
	c0,3.8,1.6,5.7,4.8,5.7s5-2,5-5.9C310.1,67.5,308.5,65.7,305.3,65.7z M305.1,67.3c2,0,2.9,1.4,2.9,4.1c0,2.9-0.9,4.1-2.9,4.1
	s-2.9-1.4-2.9-4.3C302.4,68.6,303,67.3,305.1,67.3z M335.7,65.7c-1.8,0-2.9,0.9-3.4,1.6c-0.5-0.7-1.4-1.6-3.2-1.6s-2.7,0.9-2.9,1.4
	l-0.2-1.1h-1.8V77h1.8v-7.9c0.2-0.9,1.1-1.8,2.5-1.8c1.4,0,2.3,0.9,2.3,2.5V77h1.8v-7.9c0.2-0.9,1.1-1.8,2.5-1.8c1.4,0,2,0.9,2,2.5
	V77h1.8v-7.5C339.3,67,337.9,65.7,335.7,65.7z"/>
<path class="st0" d="M82.7,3.9H53.5v10.9h9.3v29h10.6v-29h9.3L82.7,3.9z"/>
<path class="st1" d="M64.2,55h-1.4v11.1H11.2V14.5H42V3.9H0.3V77h73.1V55L64.2,55z"/>
</svg>
